<svg xmlns="http://www.w3.org/2000/svg" viewBox="0 0 8 5" shape-rendering="crispEdges" style="width:100%;height:100%;overflow:visible"><rect x="2" y="0" width="1" height="1" fill="#073720"/><rect x="3" y="0" width="1" height="1" fill="#073720"/><rect x="4" y="0" width="1" height="1" fill="#073720"/><rect x="1" y="1" width="1" height="1" fill="#073720"/><rect x="2" y="1" width="1" height="1" fill="#efc84b"/><rect x="3" y="1" width="1" height="1" fill="#efc84b"/><rect x="4" y="1" width="1" height="1" fill="#073720"/><rect x="5" y="1" width="1" height="1" fill="#073720"/><rect x="0" y="2" width="1" height="1" fill="#073720"/><rect x="1" y="2" width="1" height="1" fill="#efc84b"/><rect x="2" y="2" width="1" height="1" fill="#efc84b"/><rect x="3" y="2" width="1" height="1" fill="#efc84b"/><rect x="4" y="2" width="1" height="1" fill="#efc84b"/><rect x="5" y="2" width="1" height="1" fill="#efc84b"/><rect x="6" y="2" width="1" height="1" fill="#073720"/><rect x="1" y="3" width="1" height="1" fill="#073720"/><rect x="2" y="3" width="1" height="1" fill="#efc84b"/><rect x="3" y="3" width="1" height="1" fill="#efc84b"/><rect x="4" y="3" width="1" height="1" fill="#efc84b"/><rect x="5" y="3" width="1" height="1" fill="#073720"/><rect x="6" y="3" width="1" height="1" fill="#073720"/><rect x="2" y="4" width="1" height="1" fill="#073720"/><rect x="3" y="4" width="1" height="1" fill="#073720"/><rect x="4" y="4" width="1" height="1" fill="#073720"/><g class="wing" transform="translate(0,-2)"><rect x="1" y="2" width="2" height="1" fill="#fff8db"/></g></svg>