<svg xmlns="http://www.w3.org/2000/svg" viewBox="0 0 10 6" shape-rendering="crispEdges" style="width:100%;height:100%;overflow:visible"><rect x="2" y="0" width="1" height="1" fill="#073720"/><rect x="3" y="0" width="1" height="1" fill="#073720"/><rect x="4" y="0" width="1" height="1" fill="#073720"/><rect x="6" y="0" width="1" height="1" fill="#073720"/><rect x="8" y="0" width="1" height="1" fill="#073720"/><rect x="1" y="1" width="1" height="1" fill="#073720"/><rect x="2" y="1" width="1" height="1" fill="#b87940"/><rect x="3" y="1" width="1" height="1" fill="#b87940"/><rect x="4" y="1" width="1" height="1" fill="#b87940"/><rect x="5" y="1" width="1" height="1" fill="#073720"/><rect x="6" y="1" width="1" height="1" fill="#073720"/><rect x="8" y="1" width="1" height="1" fill="#073720"/><rect x="0" y="2" width="1" height="1" fill="#073720"/><rect x="1" y="2" width="1" height="1" fill="#b87940"/><rect x="2" y="2" width="1" height="1" fill="#efc84b"/><rect x="3" y="2" width="1" height="1" fill="#b87940"/><rect x="4" y="2" width="1" height="1" fill="#b87940"/><rect x="5" y="2" width="1" height="1" fill="#073720"/><rect x="7" y="2" width="1" height="1" fill="#91c952"/><rect x="8" y="2" width="1" height="1" fill="#073720"/><rect x="0" y="3" width="1" height="1" fill="#073720"/><rect x="1" y="3" width="1" height="1" fill="#b87940"/><rect x="2" y="3" width="1" height="1" fill="#b87940"/><rect x="3" y="3" width="1" height="1" fill="#b87940"/><rect x="4" y="3" width="1" height="1" fill="#b87940"/><rect x="5" y="3" width="1" height="1" fill="#073720"/><rect x="6" y="3" width="1" height="1" fill="#91c952"/><rect x="7" y="3" width="1" height="1" fill="#91c952"/><rect x="8" y="3" width="1" height="1" fill="#073720"/><rect x="1" y="4" width="1" height="1" fill="#073720"/><rect x="2" y="4" width="1" height="1" fill="#91c952"/><rect x="3" y="4" width="1" height="1" fill="#91c952"/><rect x="4" y="4" width="1" height="1" fill="#91c952"/><rect x="5" y="4" width="1" height="1" fill="#91c952"/><rect x="6" y="4" width="1" height="1" fill="#91c952"/><rect x="7" y="4" width="1" height="1" fill="#91c952"/><rect x="8" y="4" width="1" height="1" fill="#073720"/><rect x="2" y="5" width="1" height="1" fill="#073720"/><rect x="3" y="5" width="1" height="1" fill="#073720"/><rect x="4" y="5" width="1" height="1" fill="#073720"/><rect x="5" y="5" width="1" height="1" fill="#073720"/><rect x="6" y="5" width="1" height="1" fill="#073720"/><rect x="7" y="5" width="1" height="1" fill="#073720"/></svg>